<svg width="20" height="20" viewBox="0 0 20 20" fill="none" xmlns="http://www.w3.org/2000/svg">
<path d="M10.6062 18.2364C10.3773 18.4291 10.1726 18.5961 10 18.7344C9.82736 18.5961 9.62274 18.4291 9.39382 18.2364C8.66336 17.6218 7.69277 16.7531 6.72572 15.733C5.75546 14.7095 4.80958 13.5555 4.1113 12.3718C3.40733 11.1784 3 10.0307 3 9C3 5.17162 6.13733 2 10 2C13.8627 2 17 5.17162 17 9C17 10.0307 16.5927 11.1784 15.8887 12.3718C15.1904 13.5555 14.2445 14.7095 13.2743 15.733C12.3072 16.7531 11.3366 17.6218 10.6062 18.2364Z" stroke="black" stroke-width="2"/>
<path fill-rule="evenodd" clip-rule="evenodd" d="M10 12C11.6569 12 13 10.6569 13 9C13 7.34315 11.6569 6 10 6C8.34315 6 7 7.34315 7 9C7 10.6569 8.34315 12 10 12Z" stroke="black" stroke-width="2"/>
</svg>
